<svg width="20" height="20" viewBox="0 0 20 20" fill="none" xmlns="http://www.w3.org/2000/svg">
<g clip-path="url(#clip0_111_248)">
<path d="M10 0.00109863C8.02219 0.00109863 6.08879 0.587588 4.4443 1.6864C2.79981 2.78522 1.51808 4.347 0.761205 6.17426C0.00432905 8.00153 -0.193704 10.0122 0.192148 11.952C0.578 13.8918 1.53041 15.6736 2.92893 17.0722C4.32746 18.4707 6.10929 19.4231 8.0491 19.809C9.98891 20.1948 11.9996 19.9968 13.8268 19.2399C15.6541 18.483 17.2159 17.2013 18.3147 15.5568C19.4135 13.9123 20 11.9789 20 10.0011C19.9971 7.34981 18.9426 4.80794 17.0679 2.9332C15.1932 1.05846 12.6513 0.0039662 10 0.00109863V0.00109863ZM10 18.3344C8.35182 18.3344 6.74066 17.8457 5.37025 16.93C3.99984 16.0143 2.93174 14.7128 2.301 13.1901C1.67027 11.6674 1.50525 9.99186 1.82679 8.37535C2.14833 6.75884 2.94201 5.27398 4.10744 4.10854C5.27288 2.9431 6.75774 2.14943 8.37425 1.82789C9.99076 1.50634 11.6663 1.67137 13.189 2.3021C14.7117 2.93283 16.0132 4.00094 16.9289 5.37135C17.8446 6.74176 18.3333 8.35292 18.3333 10.0011C18.3309 12.2105 17.4522 14.3287 15.8899 15.891C14.3276 17.4533 12.2094 18.332 10 18.3344Z" fill="#7E7E7E"/>
<path d="M10.5975 4.22025C10.1169 4.13269 9.62301 4.15182 9.15066 4.27628C8.67831 4.40075 8.23909 4.6275 7.86408 4.9405C7.48906 5.2535 7.18742 5.6451 6.98051 6.08758C6.77359 6.53006 6.66645 7.01261 6.66666 7.50108C6.66666 7.7221 6.75446 7.93406 6.91074 8.09034C7.06702 8.24662 7.27898 8.33441 7.5 8.33441C7.72101 8.33441 7.93297 8.24662 8.08925 8.09034C8.24553 7.93406 8.33333 7.7221 8.33333 7.50108C8.33312 7.25589 8.38701 7.01368 8.49116 6.79171C8.5953 6.56974 8.74714 6.37349 8.93585 6.21694C9.12455 6.06039 9.34547 5.9474 9.58285 5.88604C9.82023 5.82467 10.0682 5.81643 10.3092 5.86191C10.6384 5.92582 10.941 6.0864 11.1785 6.32316C11.416 6.55991 11.5776 6.86208 11.6425 7.19108C11.7081 7.53642 11.6628 7.89365 11.5131 8.2117C11.3635 8.52975 11.1171 8.79233 10.8092 8.96192C10.2993 9.2573 9.87799 9.68401 9.5891 10.1976C9.30022 10.7112 9.15434 11.2928 9.16666 11.8819V12.5011C9.16666 12.7221 9.25446 12.9341 9.41074 13.0903C9.56702 13.2466 9.77898 13.3344 10 13.3344C10.221 13.3344 10.433 13.2466 10.5893 13.0903C10.7455 12.9341 10.8333 12.7221 10.8333 12.5011V11.8819C10.8229 11.5919 10.889 11.3043 11.0251 11.048C11.1611 10.7917 11.3623 10.5757 11.6083 10.4219C12.2121 10.0903 12.6983 9.5798 13.0001 8.96059C13.3018 8.34138 13.4044 7.64388 13.2936 6.96402C13.1828 6.28416 12.864 5.65532 12.3812 5.16399C11.8985 4.67266 11.2753 4.34297 10.5975 4.22025Z" fill="#7E7E7E"/>
<path d="M10.8333 15.0011C10.8333 14.5409 10.4602 14.1678 10 14.1678C9.53976 14.1678 9.16667 14.5409 9.16667 15.0011C9.16667 15.4614 9.53976 15.8345 10 15.8345C10.4602 15.8345 10.8333 15.4614 10.8333 15.0011Z" fill="#7E7E7E"/>
</g>
<defs>
<clipPath id="clip0_111_248">
<rect width="20" height="20" fill="white" transform="translate(0 0.00109863)"/>
</clipPath>
</defs>
</svg>
