<svg width="20" height="20" viewBox="0 0 20 20" fill="none" xmlns="http://www.w3.org/2000/svg">
<g clip-path="url(#clip0_111_256)">
<path d="M5.83333 0.00109863H3.33333C2.44928 0.00109863 1.60143 0.352288 0.976311 0.977409C0.35119 1.60253 0 2.45038 0 3.33443L0 5.83443C0 6.71849 0.35119 7.56633 0.976311 8.19145C1.60143 8.81658 2.44928 9.16777 3.33333 9.16777H5.83333C6.71739 9.16777 7.56524 8.81658 8.19036 8.19145C8.81548 7.56633 9.16667 6.71849 9.16667 5.83443V3.33443C9.16667 2.45038 8.81548 1.60253 8.19036 0.977409C7.56524 0.352288 6.71739 0.00109863 5.83333 0.00109863V0.00109863ZM7.5 5.83443C7.5 6.27646 7.32441 6.70038 7.01184 7.01294C6.69928 7.3255 6.27536 7.5011 5.83333 7.5011H3.33333C2.89131 7.5011 2.46738 7.3255 2.15482 7.01294C1.84226 6.70038 1.66667 6.27646 1.66667 5.83443V3.33443C1.66667 2.8924 1.84226 2.46848 2.15482 2.15592C2.46738 1.84336 2.89131 1.66777 3.33333 1.66777H5.83333C6.27536 1.66777 6.69928 1.84336 7.01184 2.15592C7.32441 2.46848 7.5 2.8924 7.5 3.33443V5.83443Z" fill="#7E7E7E"/>
<path d="M16.6667 0.00109863H14.1667C13.2826 0.00109863 12.4348 0.352288 11.8096 0.977409C11.1845 1.60253 10.8333 2.45038 10.8333 3.33443V5.83443C10.8333 6.71849 11.1845 7.56633 11.8096 8.19145C12.4348 8.81658 13.2826 9.16777 14.1667 9.16777H16.6667C17.5507 9.16777 18.3986 8.81658 19.0237 8.19145C19.6488 7.56633 20 6.71849 20 5.83443V3.33443C20 2.45038 19.6488 1.60253 19.0237 0.977409C18.3986 0.352288 17.5507 0.00109863 16.6667 0.00109863V0.00109863ZM18.3333 5.83443C18.3333 6.27646 18.1577 6.70038 17.8452 7.01294C17.5326 7.3255 17.1087 7.5011 16.6667 7.5011H14.1667C13.7246 7.5011 13.3007 7.3255 12.9882 7.01294C12.6756 6.70038 12.5 6.27646 12.5 5.83443V3.33443C12.5 2.8924 12.6756 2.46848 12.9882 2.15592C13.3007 1.84336 13.7246 1.66777 14.1667 1.66777H16.6667C17.1087 1.66777 17.5326 1.84336 17.8452 2.15592C18.1577 2.46848 18.3333 2.8924 18.3333 3.33443V5.83443Z" fill="#7E7E7E"/>
<path d="M5.83333 10.8344H3.33333C2.44928 10.8344 1.60143 11.1856 0.976311 11.8107C0.35119 12.4358 0 13.2837 0 14.1677L0 16.6677C0 17.5518 0.35119 18.3996 0.976311 19.0248C1.60143 19.6499 2.44928 20.0011 3.33333 20.0011H5.83333C6.71739 20.0011 7.56524 19.6499 8.19036 19.0248C8.81548 18.3996 9.16667 17.5518 9.16667 16.6677V14.1677C9.16667 13.2837 8.81548 12.4358 8.19036 11.8107C7.56524 11.1856 6.71739 10.8344 5.83333 10.8344ZM7.5 16.6677C7.5 17.1098 7.32441 17.5337 7.01184 17.8463C6.69928 18.1588 6.27536 18.3344 5.83333 18.3344H3.33333C2.89131 18.3344 2.46738 18.1588 2.15482 17.8463C1.84226 17.5337 1.66667 17.1098 1.66667 16.6677V14.1677C1.66667 13.7257 1.84226 13.3018 2.15482 12.9892C2.46738 12.6767 2.89131 12.5011 3.33333 12.5011H5.83333C6.27536 12.5011 6.69928 12.6767 7.01184 12.9892C7.32441 13.3018 7.5 13.7257 7.5 14.1677V16.6677Z" fill="#7E7E7E"/>
<path d="M16.6667 10.8344H14.1667C13.2826 10.8344 12.4348 11.1856 11.8096 11.8107C11.1845 12.4358 10.8333 13.2837 10.8333 14.1677V16.6677C10.8333 17.5518 11.1845 18.3996 11.8096 19.0248C12.4348 19.6499 13.2826 20.0011 14.1667 20.0011H16.6667C17.5507 20.0011 18.3986 19.6499 19.0237 19.0248C19.6488 18.3996 20 17.5518 20 16.6677V14.1677C20 13.2837 19.6488 12.4358 19.0237 11.8107C18.3986 11.1856 17.5507 10.8344 16.6667 10.8344ZM18.3333 16.6677C18.3333 17.1098 18.1577 17.5337 17.8452 17.8463C17.5326 18.1588 17.1087 18.3344 16.6667 18.3344H14.1667C13.7246 18.3344 13.3007 18.1588 12.9882 17.8463C12.6756 17.5337 12.5 17.1098 12.5 16.6677V14.1677C12.5 13.7257 12.6756 13.3018 12.9882 12.9892C13.3007 12.6767 13.7246 12.5011 14.1667 12.5011H16.6667C17.1087 12.5011 17.5326 12.6767 17.8452 12.9892C18.1577 13.3018 18.3333 13.7257 18.3333 14.1677V16.6677Z" fill="#7E7E7E"/>
</g>
<defs>
<clipPath id="clip0_111_256">
<rect width="20" height="20" fill="white" transform="translate(0 0.00109863)"/>
</clipPath>
</defs>
</svg>
