<svg width="20" height="20" viewBox="0 0 20 20" fill="none" xmlns="http://www.w3.org/2000/svg">
<path d="M19.2675 7.55849L12.9467 1.23682C12.1644 0.456811 11.1047 0.0187988 10 0.0187988C8.89528 0.0187988 7.83563 0.456811 7.05333 1.23682L0.732495 7.55849C0.499516 7.78997 0.314803 8.0654 0.189064 8.36881C0.0633241 8.67221 -0.000940592 8.99756 -5.19255e-06 9.32599V17.5068C-5.19255e-06 18.1699 0.263387 18.8057 0.732228 19.2746C1.20107 19.7434 1.83695 20.0068 2.49999 20.0068H17.5C18.163 20.0068 18.7989 19.7434 19.2678 19.2746C19.7366 18.8057 20 18.1699 20 17.5068V9.32599C20.0009 8.99756 19.9367 8.67221 19.8109 8.36881C19.6852 8.0654 19.5005 7.78997 19.2675 7.55849ZM12.5 18.3402H7.5V15.0618C7.5 14.3988 7.76339 13.7629 8.23223 13.2941C8.70107 12.8252 9.33695 12.5618 10 12.5618C10.663 12.5618 11.2989 12.8252 11.7678 13.2941C12.2366 13.7629 12.5 14.3988 12.5 15.0618V18.3402ZM18.3333 17.5068C18.3333 17.7278 18.2455 17.9398 18.0893 18.0961C17.933 18.2524 17.721 18.3402 17.5 18.3402H14.1667V15.0618C14.1667 13.9568 13.7277 12.8969 12.9463 12.1155C12.1649 11.3341 11.1051 10.8952 10 10.8952C8.89493 10.8952 7.83512 11.3341 7.05372 12.1155C6.27232 12.8969 5.83333 13.9568 5.83333 15.0618V18.3402H2.49999C2.27898 18.3402 2.06702 18.2524 1.91074 18.0961C1.75446 17.9398 1.66666 17.7278 1.66666 17.5068V9.32599C1.66743 9.10514 1.75515 8.89347 1.91083 8.73682L8.23166 2.41765C8.70141 1.95009 9.33722 1.68761 10 1.68761C10.6628 1.68761 11.2986 1.95009 11.7683 2.41765L18.0892 8.73932C18.2442 8.89536 18.3319 9.106 18.3333 9.32599V17.5068Z" fill="black"/>
</svg>
