<svg width="16" height="20" viewBox="0 0 16 20" fill="none" xmlns="http://www.w3.org/2000/svg">
<path d="M12.995 1.90609C11.9778 0.997373 10.7321 0.38324 9.39194 0.12978C8.05174 -0.123681 6.6678 -0.00687143 5.38905 0.467636C4.11029 0.942144 2.98515 1.75638 2.13469 2.82273C1.28424 3.88908 0.740672 5.16715 0.562499 6.51942C0.402482 7.70513 0.530459 8.91193 0.935598 10.0377C1.34074 11.1635 2.01112 12.1751 2.89 12.9869C3.4335 13.4635 3.87207 14.0479 4.1779 14.7028C4.48374 15.3578 4.65018 16.0692 4.66667 16.7919V16.9261C4.66755 17.7414 4.9918 18.523 5.56829 19.0995C6.14477 19.6759 6.92639 20.0002 7.74166 20.0011H8.25833C9.0736 20.0002 9.85523 19.6759 10.4317 19.0995C11.0082 18.523 11.3324 17.7414 11.3333 16.9261V16.4686C11.3458 15.8298 11.4961 15.2013 11.774 14.6259C12.0519 14.0506 12.4507 13.5421 12.9433 13.1353C13.7422 12.4356 14.3832 11.5742 14.824 10.6082C15.2648 9.64207 15.4952 8.59336 15.5001 7.53148C15.505 6.4696 15.2842 5.41881 14.8523 4.44872C14.4204 3.47862 13.7874 2.61137 12.995 1.90442V1.90609ZM8.25833 18.3344H7.74166C7.36829 18.334 7.01033 18.1855 6.74631 17.9214C6.48229 17.6574 6.33377 17.2995 6.33333 16.9261C6.33333 16.9261 6.3275 16.7094 6.32666 16.6678H9.66667V16.9261C9.66622 17.2995 9.5177 17.6574 9.25369 17.9214C8.98967 18.1855 8.63171 18.334 8.25833 18.3344ZM11.8417 11.8836C10.8929 12.7065 10.2076 13.7909 9.87167 15.0011H8.83333V9.01442C9.31909 8.84268 9.73992 8.52506 10.0383 8.105C10.3366 7.68495 10.4979 7.18297 10.5 6.66775C10.5 6.44674 10.4122 6.23478 10.2559 6.0785C10.0996 5.92222 9.88768 5.83442 9.66667 5.83442C9.44565 5.83442 9.23369 5.92222 9.07741 6.0785C8.92113 6.23478 8.83333 6.44674 8.83333 6.66775C8.83333 6.88877 8.74553 7.10073 8.58925 7.25701C8.43297 7.41329 8.22101 7.50109 8 7.50109C7.77899 7.50109 7.56702 7.41329 7.41074 7.25701C7.25446 7.10073 7.16667 6.88877 7.16667 6.66775C7.16667 6.44674 7.07887 6.23478 6.92259 6.0785C6.76631 5.92222 6.55435 5.83442 6.33333 5.83442C6.11232 5.83442 5.90036 5.92222 5.74408 6.0785C5.5878 6.23478 5.5 6.44674 5.5 6.66775C5.50213 7.18297 5.6634 7.68495 5.96174 8.105C6.26008 8.52506 6.68091 8.84268 7.16667 9.01442V15.0011H6.065C5.68916 13.7588 4.98426 12.6412 4.025 11.7669C3.21079 11.0082 2.6306 10.0325 2.35289 8.95482C2.07518 7.87715 2.11154 6.74252 2.45767 5.68483C2.80381 4.62715 3.44528 3.69054 4.30639 2.98556C5.16749 2.28057 6.2123 1.83661 7.3175 1.70609C7.54661 1.68051 7.77697 1.66771 8.0075 1.66775C9.43881 1.6635 10.8206 2.19161 11.8842 3.14942C12.5006 3.69908 12.9931 4.37349 13.3291 5.12794C13.6651 5.88239 13.8369 6.69964 13.8332 7.52552C13.8294 8.3514 13.6501 9.16705 13.3072 9.91838C12.9643 10.6697 12.4656 11.3396 11.8442 11.8836H11.8417Z" fill="#7E7E7E"/>
</svg>
