<svg width="16" height="20" viewBox="0 0 16 20" fill="none" xmlns="http://www.w3.org/2000/svg">
<path d="M2.89001 12.9867C2.01112 12.1749 1.34074 11.1633 0.935606 10.0375C0.530466 8.91174 0.40249 7.70494 0.562507 6.51923C0.720728 5.31695 1.16812 4.17096 1.86633 3.17949C2.56454 2.18802 3.49275 1.38064 4.5714 0.826539C5.65006 0.272442 6.84698 -0.0118421 8.05959 -0.00194755C9.27219 0.00794705 10.4643 0.311725 11.5338 0.883351C12.6033 1.45498 13.5182 2.2774 14.2001 3.28013C14.882 4.28286 15.3107 5.436 15.4493 6.6407C15.5878 7.84541 15.4322 9.06575 14.9958 10.1971C14.5593 11.3285 13.8551 12.3372 12.9433 13.1367C12.3562 13.6415 11.9004 14.2812 11.615 15.0009H8.83334V9.01423C9.3191 8.84249 9.73993 8.52487 10.0383 8.10481C10.3366 7.68475 10.4979 7.18278 10.5 6.66756C10.5 6.44655 10.4122 6.23459 10.2559 6.07831C10.0996 5.92203 9.88769 5.83423 9.66667 5.83423C9.44566 5.83423 9.2337 5.92203 9.07742 6.07831C8.92114 6.23459 8.83334 6.44655 8.83334 6.66756C8.83334 6.88858 8.74554 7.10054 8.58926 7.25682C8.43298 7.4131 8.22102 7.5009 8.00001 7.5009C7.77899 7.5009 7.56703 7.4131 7.41075 7.25682C7.25447 7.10054 7.16667 6.88858 7.16667 6.66756C7.16667 6.44655 7.07888 6.23459 6.92259 6.07831C6.76631 5.92203 6.55435 5.83423 6.33334 5.83423C6.11233 5.83423 5.90036 5.92203 5.74408 6.07831C5.5878 6.23459 5.50001 6.44655 5.50001 6.66756C5.50214 7.18278 5.66341 7.68475 5.96175 8.10481C6.26008 8.52487 6.68092 8.84249 7.16667 9.01423V15.0009H4.30251C3.98392 14.2347 3.50186 13.5473 2.89001 12.9867ZM4.66667 16.6676V16.9259C4.66756 17.7412 4.99181 18.5228 5.56829 19.0993C6.14478 19.6758 6.9264 20 7.74167 20.0009H8.25834C9.07361 20 9.85523 19.6758 10.4317 19.0993C11.0082 18.5228 11.3325 17.7412 11.3333 16.9259V16.6676H4.66667Z" fill="#EF402F"/>
</svg>
