<svg width="20" height="20" viewBox="0 0 20 20" fill="none" xmlns="http://www.w3.org/2000/svg">
<g clip-path="url(#clip0_111_227)">
<path d="M10 12.4949C8.6193 12.4949 7.5 13.6142 7.5 14.9949V19.9949H12.5V14.9949C12.5 13.6142 11.3807 12.4949 10 12.4949Z" fill="#EF402F"/>
<path d="M14.1667 14.9949V19.9949H17.5C18.8807 19.9949 20 18.8756 20 17.4949V9.89405C20.0002 9.46112 19.832 9.04511 19.5308 8.73405L12.4492 1.07819C11.1996 -0.273762 9.09074 -0.35677 7.73879 0.892762C7.67457 0.952137 7.6127 1.01397 7.55336 1.07819L0.48418 8.73155C0.173945 9.04389 -0.000117128 9.46632 5.9134e-08 9.90655V17.4949C5.9134e-08 18.8756 1.1193 19.9949 2.5 19.9949H5.83332V14.9949C5.84891 12.7225 7.68355 10.8669 9.89867 10.8135C12.1879 10.7582 14.1492 12.6455 14.1667 14.9949Z" fill="#EF402F"/>
<path d="M10 12.4949C8.6193 12.4949 7.5 13.6142 7.5 14.9949V19.9949H12.5V14.9949C12.5 13.6142 11.3807 12.4949 10 12.4949Z" fill="#EF402F"/>
</g>
<defs>
<clipPath id="clip0_111_227">
<rect width="20" height="20" fill="white" transform="translate(0 0.00109863)"/>
</clipPath>
</defs>
</svg>
