<svg width="52" height="50" viewBox="0 0 52 50" fill="none" xmlns="http://www.w3.org/2000/svg">
<rect width="52" height="49.9996" rx="17" fill="#E72524"/>
<g clip-path="url(#clip0_111_946)">
<path d="M33.0417 10.9373C29.5537 10.9373 27.2405 13.4503 26 15.318C24.7595 13.4503 22.4463 10.9373 18.9583 10.9373C17.0908 10.9373 15.2997 11.6506 13.9791 12.9204C12.6586 14.1901 11.9167 15.9123 11.9167 17.708C11.9167 19.5038 12.6586 21.2259 13.9791 22.4957C15.2997 23.7655 17.0908 24.4788 18.9583 24.4788C22.4463 24.4788 24.7595 21.9657 26 20.0981C27.2405 21.9657 29.5537 24.4788 33.0417 24.4788C34.9092 24.4788 36.7003 23.7655 38.0209 22.4957C39.3415 21.2259 40.0833 19.5038 40.0833 17.708C40.0833 15.9123 39.3415 14.1901 38.0209 12.9204C36.7003 11.6506 34.9092 10.9373 33.0417 10.9373ZM18.9583 22.2219C17.7133 22.2219 16.5193 21.7463 15.6389 20.8998C14.7585 20.0533 14.2639 18.9052 14.2639 17.708C14.2639 16.5109 14.7585 15.3628 15.6389 14.5163C16.5193 13.6697 17.7133 13.1942 18.9583 13.1942C22.1189 13.1942 24.1011 16.5175 24.709 17.708C24.1058 18.9042 22.1365 22.2219 18.9583 22.2219ZM33.0417 22.2219C29.8811 22.2219 27.8989 18.8986 27.291 17.708C27.8954 16.5141 29.8647 13.1942 33.0417 13.1942C34.2867 13.1942 35.4808 13.6697 36.3612 14.5163C37.2415 15.3628 37.7361 16.5109 37.7361 17.708C37.7361 18.9052 37.2415 20.0533 36.3612 20.8998C35.4808 21.7463 34.2867 22.2219 33.0417 22.2219Z" fill="white"/>
</g>
<path d="M13.4272 34.4395L11.3392 39.9995H10.2832L8.18716 34.4395H9.16316L10.8112 39.0635L12.4672 34.4395H13.4272ZM18.2298 37.6875C18.2298 37.8528 18.2192 38.0022 18.1978 38.1355H14.8298C14.8565 38.4875 14.9872 38.7702 15.2218 38.9835C15.4565 39.1968 15.7445 39.3035 16.0858 39.3035C16.5765 39.3035 16.9232 39.0982 17.1258 38.6875H18.1098C17.9765 39.0928 17.7338 39.4262 17.3818 39.6875C17.0352 39.9435 16.6032 40.0715 16.0858 40.0715C15.6645 40.0715 15.2858 39.9782 14.9498 39.7915C14.6192 39.5995 14.3578 39.3328 14.1658 38.9915C13.9792 38.6448 13.8858 38.2448 13.8858 37.7915C13.8858 37.3382 13.9765 36.9408 14.1578 36.5995C14.3445 36.2528 14.6032 35.9862 14.9338 35.7995C15.2698 35.6128 15.6538 35.5195 16.0858 35.5195C16.5018 35.5195 16.8725 35.6102 17.1978 35.7915C17.5232 35.9728 17.7765 36.2288 17.9578 36.5595C18.1392 36.8848 18.2298 37.2608 18.2298 37.6875ZM17.2778 37.3995C17.2725 37.0635 17.1525 36.7942 16.9178 36.5915C16.6832 36.3888 16.3925 36.2875 16.0458 36.2875C15.7312 36.2875 15.4618 36.3888 15.2378 36.5915C15.0138 36.7888 14.8805 37.0582 14.8378 37.3995H17.2778ZM18.8233 37.7755C18.8233 37.3328 18.914 36.9408 19.0953 36.5995C19.282 36.2582 19.5327 35.9942 19.8473 35.8075C20.1673 35.6155 20.522 35.5195 20.9113 35.5195C21.1993 35.5195 21.482 35.5835 21.7593 35.7115C22.042 35.8342 22.266 35.9995 22.4313 36.2075V34.0795H23.3513V39.9995H22.4313V39.3355C22.282 39.5488 22.074 39.7248 21.8073 39.8635C21.546 40.0022 21.2447 40.0715 20.9033 40.0715C20.5193 40.0715 20.1673 39.9755 19.8473 39.7835C19.5327 39.5862 19.282 39.3142 19.0953 38.9675C18.914 38.6155 18.8233 38.2182 18.8233 37.7755ZM22.4313 37.7915C22.4313 37.4875 22.3673 37.2235 22.2393 36.9995C22.1167 36.7755 21.954 36.6048 21.7513 36.4875C21.5487 36.3702 21.33 36.3115 21.0953 36.3115C20.8607 36.3115 20.642 36.3702 20.4393 36.4875C20.2367 36.5995 20.0713 36.7675 19.9433 36.9915C19.8207 37.2102 19.7593 37.4715 19.7593 37.7755C19.7593 38.0795 19.8207 38.3462 19.9433 38.5755C20.0713 38.8048 20.2367 38.9808 20.4393 39.1035C20.6473 39.2208 20.866 39.2795 21.0953 39.2795C21.33 39.2795 21.5487 39.2208 21.7513 39.1035C21.954 38.9862 22.1167 38.8155 22.2393 38.5915C22.3673 38.3622 22.4313 38.0955 22.4313 37.7915ZM24.2452 37.7755C24.2452 37.3328 24.3359 36.9408 24.5172 36.5995C24.7039 36.2582 24.9546 35.9942 25.2692 35.8075C25.5892 35.6155 25.9412 35.5195 26.3252 35.5195C26.6719 35.5195 26.9732 35.5888 27.2292 35.7275C27.4906 35.8608 27.6986 36.0288 27.8532 36.2315V35.5915H28.7732V39.9995H27.8532V39.3435C27.6986 39.5515 27.4879 39.7248 27.2212 39.8635C26.9546 40.0022 26.6506 40.0715 26.3092 40.0715C25.9306 40.0715 25.5839 39.9755 25.2692 39.7835C24.9546 39.5862 24.7039 39.3142 24.5172 38.9675C24.3359 38.6155 24.2452 38.2182 24.2452 37.7755ZM27.8532 37.7915C27.8532 37.4875 27.7892 37.2235 27.6612 36.9995C27.5386 36.7755 27.3759 36.6048 27.1732 36.4875C26.9706 36.3702 26.7519 36.3115 26.5172 36.3115C26.2826 36.3115 26.0639 36.3702 25.8612 36.4875C25.6586 36.5995 25.4932 36.7675 25.3652 36.9915C25.2426 37.2102 25.1812 37.4715 25.1812 37.7755C25.1812 38.0795 25.2426 38.3462 25.3652 38.5755C25.4932 38.8048 25.6586 38.9808 25.8612 39.1035C26.0692 39.2208 26.2879 39.2795 26.5172 39.2795C26.7519 39.2795 26.9706 39.2208 27.1732 39.1035C27.3759 38.9862 27.5386 38.8155 27.6612 38.5915C27.7892 38.3622 27.8532 38.0955 27.8532 37.7915ZM32.1951 35.5195C32.5418 35.5195 32.8511 35.5915 33.1231 35.7355C33.4004 35.8795 33.6164 36.0928 33.7711 36.3755C33.9258 36.6582 34.0031 36.9995 34.0031 37.3995V39.9995H33.0991V37.5355C33.0991 37.1408 33.0004 36.8395 32.8031 36.6315C32.6058 36.4182 32.3364 36.3115 31.9951 36.3115C31.6538 36.3115 31.3818 36.4182 31.1791 36.6315C30.9818 36.8395 30.8831 37.1408 30.8831 37.5355V39.9995H29.9711V35.5915H30.8831V36.0955C31.0324 35.9142 31.2218 35.7728 31.4511 35.6715C31.6858 35.5702 31.9338 35.5195 32.1951 35.5195ZM36.2304 36.3355V38.7755C36.2304 38.9408 36.2677 39.0608 36.3424 39.1355C36.4224 39.2048 36.5557 39.2395 36.7424 39.2395H37.3024V39.9995H36.5824C36.1717 39.9995 35.8571 39.9035 35.6384 39.7115C35.4197 39.5195 35.3104 39.2075 35.3104 38.7755V36.3355H34.7904V35.5915H35.3104V34.4955H36.2304V35.5915H37.3024V36.3355H36.2304ZM37.839 37.7755C37.839 37.3328 37.9296 36.9408 38.111 36.5995C38.2976 36.2582 38.5483 35.9942 38.863 35.8075C39.183 35.6155 39.535 35.5195 39.919 35.5195C40.2656 35.5195 40.567 35.5888 40.823 35.7275C41.0843 35.8608 41.2923 36.0288 41.447 36.2315V35.5915H42.367V39.9995H41.447V39.3435C41.2923 39.5515 41.0816 39.7248 40.815 39.8635C40.5483 40.0022 40.2443 40.0715 39.903 40.0715C39.5243 40.0715 39.1776 39.9755 38.863 39.7835C38.5483 39.5862 38.2976 39.3142 38.111 38.9675C37.9296 38.6155 37.839 38.2182 37.839 37.7755ZM41.447 37.7915C41.447 37.4875 41.383 37.2235 41.255 36.9995C41.1323 36.7755 40.9696 36.6048 40.767 36.4875C40.5643 36.3702 40.3456 36.3115 40.111 36.3115C39.8763 36.3115 39.6576 36.3702 39.455 36.4875C39.2523 36.5995 39.087 36.7675 38.959 36.9915C38.8363 37.2102 38.775 37.4715 38.775 37.7755C38.775 38.0795 38.8363 38.3462 38.959 38.5755C39.087 38.8048 39.2523 38.9808 39.455 39.1035C39.663 39.2208 39.8816 39.2795 40.111 39.2795C40.3456 39.2795 40.5643 39.2208 40.767 39.1035C40.9696 38.9862 41.1323 38.8155 41.255 38.5915C41.383 38.3622 41.447 38.0955 41.447 37.7915Z" fill="white"/>
<defs>
<clipPath id="clip0_111_946">
<rect width="28.1667" height="27.0831" fill="white" transform="translate(11.9167 4.1665)"/>
</clipPath>
</defs>
</svg>
