<svg width="52" height="50" viewBox="0 0 52 50" fill="none" xmlns="http://www.w3.org/2000/svg">
<rect width="52" height="49.9996" rx="17" fill="#FB0006"/>
<g clip-path="url(#clip0_111_241)">
<path d="M33.0417 10.9374C29.5537 10.9374 27.2405 13.4505 26 15.3181C24.7595 13.4505 22.4463 10.9374 18.9583 10.9374C17.0908 10.9374 15.2997 11.6508 13.9791 12.9206C12.6586 14.1903 11.9167 15.9125 11.9167 17.7082C11.9167 19.5039 12.6586 21.2261 13.9791 22.4959C15.2997 23.7657 17.0908 24.479 18.9583 24.479C22.4463 24.479 24.7595 21.9659 26 20.0983C27.2405 21.9659 29.5537 24.479 33.0417 24.479C34.9092 24.479 36.7003 23.7657 38.0209 22.4959C39.3415 21.2261 40.0833 19.5039 40.0833 17.7082C40.0833 15.9125 39.3415 14.1903 38.0209 12.9206C36.7003 11.6508 34.9092 10.9374 33.0417 10.9374ZM18.9583 22.2221C17.7133 22.2221 16.5193 21.7465 15.6389 20.9C14.7585 20.0535 14.2639 18.9054 14.2639 17.7082C14.2639 16.5111 14.7585 15.363 15.6389 14.5164C16.5193 13.6699 17.7133 13.1944 18.9583 13.1944C22.1189 13.1944 24.1011 16.5177 24.709 17.7082C24.1058 18.9044 22.1365 22.2221 18.9583 22.2221ZM33.0417 22.2221C29.8811 22.2221 27.8989 18.8988 27.291 17.7082C27.8954 16.5143 29.8647 13.1944 33.0417 13.1944C34.2867 13.1944 35.4808 13.6699 36.3612 14.5164C37.2415 15.363 37.7361 16.5111 37.7361 17.7082C37.7361 18.9054 37.2415 20.0535 36.3612 20.9C35.4808 21.7465 34.2867 22.2221 33.0417 22.2221Z" fill="white"/>
</g>
<path d="M13.4272 34.4396L11.3392 39.9996H10.2832L8.18716 34.4396H9.16316L10.8112 39.0636L12.4672 34.4396H13.4272ZM18.2298 37.6876C18.2298 37.853 18.2192 38.0023 18.1978 38.1356H14.8298C14.8565 38.4876 14.9872 38.7703 15.2218 38.9836C15.4565 39.197 15.7445 39.3036 16.0858 39.3036C16.5765 39.3036 16.9232 39.0983 17.1258 38.6876H18.1098C17.9765 39.093 17.7338 39.4263 17.3818 39.6876C17.0352 39.9436 16.6032 40.0716 16.0858 40.0716C15.6645 40.0716 15.2858 39.9783 14.9498 39.7916C14.6192 39.5996 14.3578 39.333 14.1658 38.9916C13.9792 38.645 13.8858 38.245 13.8858 37.7916C13.8858 37.3383 13.9765 36.941 14.1578 36.5996C14.3445 36.253 14.6032 35.9863 14.9338 35.7996C15.2698 35.613 15.6538 35.5196 16.0858 35.5196C16.5018 35.5196 16.8725 35.6103 17.1978 35.7916C17.5232 35.973 17.7765 36.229 17.9578 36.5596C18.1392 36.885 18.2298 37.261 18.2298 37.6876ZM17.2778 37.3996C17.2725 37.0636 17.1525 36.7943 16.9178 36.5916C16.6832 36.389 16.3925 36.2876 16.0458 36.2876C15.7312 36.2876 15.4618 36.389 15.2378 36.5916C15.0138 36.789 14.8805 37.0583 14.8378 37.3996H17.2778ZM18.8233 37.7756C18.8233 37.333 18.914 36.941 19.0953 36.5996C19.282 36.2583 19.5327 35.9943 19.8473 35.8076C20.1673 35.6156 20.522 35.5196 20.9113 35.5196C21.1993 35.5196 21.482 35.5836 21.7593 35.7116C22.042 35.8343 22.266 35.9996 22.4313 36.2076V34.0796H23.3513V39.9996H22.4313V39.3356C22.282 39.549 22.074 39.725 21.8073 39.8636C21.546 40.0023 21.2447 40.0716 20.9033 40.0716C20.5193 40.0716 20.1673 39.9756 19.8473 39.7836C19.5327 39.5863 19.282 39.3143 19.0953 38.9676C18.914 38.6156 18.8233 38.2183 18.8233 37.7756ZM22.4313 37.7916C22.4313 37.4876 22.3673 37.2236 22.2393 36.9996C22.1167 36.7756 21.954 36.605 21.7513 36.4876C21.5487 36.3703 21.33 36.3116 21.0953 36.3116C20.8607 36.3116 20.642 36.3703 20.4393 36.4876C20.2367 36.5996 20.0713 36.7676 19.9433 36.9916C19.8207 37.2103 19.7593 37.4716 19.7593 37.7756C19.7593 38.0796 19.8207 38.3463 19.9433 38.5756C20.0713 38.805 20.2367 38.981 20.4393 39.1036C20.6473 39.221 20.866 39.2796 21.0953 39.2796C21.33 39.2796 21.5487 39.221 21.7513 39.1036C21.954 38.9863 22.1167 38.8156 22.2393 38.5916C22.3673 38.3623 22.4313 38.0956 22.4313 37.7916ZM24.2452 37.7756C24.2452 37.333 24.3359 36.941 24.5172 36.5996C24.7039 36.2583 24.9546 35.9943 25.2692 35.8076C25.5892 35.6156 25.9412 35.5196 26.3252 35.5196C26.6719 35.5196 26.9732 35.589 27.2292 35.7276C27.4906 35.861 27.6986 36.029 27.8532 36.2316V35.5916H28.7732V39.9996H27.8532V39.3436C27.6986 39.5516 27.4879 39.725 27.2212 39.8636C26.9546 40.0023 26.6506 40.0716 26.3092 40.0716C25.9306 40.0716 25.5839 39.9756 25.2692 39.7836C24.9546 39.5863 24.7039 39.3143 24.5172 38.9676C24.3359 38.6156 24.2452 38.2183 24.2452 37.7756ZM27.8532 37.7916C27.8532 37.4876 27.7892 37.2236 27.6612 36.9996C27.5386 36.7756 27.3759 36.605 27.1732 36.4876C26.9706 36.3703 26.7519 36.3116 26.5172 36.3116C26.2826 36.3116 26.0639 36.3703 25.8612 36.4876C25.6586 36.5996 25.4932 36.7676 25.3652 36.9916C25.2426 37.2103 25.1812 37.4716 25.1812 37.7756C25.1812 38.0796 25.2426 38.3463 25.3652 38.5756C25.4932 38.805 25.6586 38.981 25.8612 39.1036C26.0692 39.221 26.2879 39.2796 26.5172 39.2796C26.7519 39.2796 26.9706 39.221 27.1732 39.1036C27.3759 38.9863 27.5386 38.8156 27.6612 38.5916C27.7892 38.3623 27.8532 38.0956 27.8532 37.7916ZM32.1951 35.5196C32.5418 35.5196 32.8511 35.5916 33.1231 35.7356C33.4004 35.8796 33.6164 36.093 33.7711 36.3756C33.9258 36.6583 34.0031 36.9996 34.0031 37.3996V39.9996H33.0991V37.5356C33.0991 37.141 33.0004 36.8396 32.8031 36.6316C32.6058 36.4183 32.3364 36.3116 31.9951 36.3116C31.6538 36.3116 31.3818 36.4183 31.1791 36.6316C30.9818 36.8396 30.8831 37.141 30.8831 37.5356V39.9996H29.9711V35.5916H30.8831V36.0956C31.0324 35.9143 31.2218 35.773 31.4511 35.6716C31.6858 35.5703 31.9338 35.5196 32.1951 35.5196ZM36.2304 36.3356V38.7756C36.2304 38.941 36.2677 39.061 36.3424 39.1356C36.4224 39.205 36.5557 39.2396 36.7424 39.2396H37.3024V39.9996H36.5824C36.1717 39.9996 35.8571 39.9036 35.6384 39.7116C35.4197 39.5196 35.3104 39.2076 35.3104 38.7756V36.3356H34.7904V35.5916H35.3104V34.4956H36.2304V35.5916H37.3024V36.3356H36.2304ZM37.839 37.7756C37.839 37.333 37.9296 36.941 38.111 36.5996C38.2976 36.2583 38.5483 35.9943 38.863 35.8076C39.183 35.6156 39.535 35.5196 39.919 35.5196C40.2656 35.5196 40.567 35.589 40.823 35.7276C41.0843 35.861 41.2923 36.029 41.447 36.2316V35.5916H42.367V39.9996H41.447V39.3436C41.2923 39.5516 41.0816 39.725 40.815 39.8636C40.5483 40.0023 40.2443 40.0716 39.903 40.0716C39.5243 40.0716 39.1776 39.9756 38.863 39.7836C38.5483 39.5863 38.2976 39.3143 38.111 38.9676C37.9296 38.6156 37.839 38.2183 37.839 37.7756ZM41.447 37.7916C41.447 37.4876 41.383 37.2236 41.255 36.9996C41.1323 36.7756 40.9696 36.605 40.767 36.4876C40.5643 36.3703 40.3456 36.3116 40.111 36.3116C39.8763 36.3116 39.6576 36.3703 39.455 36.4876C39.2523 36.5996 39.087 36.7676 38.959 36.9916C38.8363 37.2103 38.775 37.4716 38.775 37.7756C38.775 38.0796 38.8363 38.3463 38.959 38.5756C39.087 38.805 39.2523 38.981 39.455 39.1036C39.663 39.221 39.8816 39.2796 40.111 39.2796C40.3456 39.2796 40.5643 39.221 40.767 39.1036C40.9696 38.9863 41.1323 38.8156 41.255 38.5916C41.383 38.3623 41.447 38.0956 41.447 37.7916Z" fill="white"/>
<defs>
<clipPath id="clip0_111_241">
<rect width="28.1667" height="27.0831" fill="white" transform="translate(11.9167 4.16663)"/>
</clipPath>
</defs>
</svg>
