<svg width="20" height="20" viewBox="0 0 20 20" fill="none" xmlns="http://www.w3.org/2000/svg">
<g clip-path="url(#clip0_111_1278)">
<path d="M5.83333 0.000976563H3.33333C2.44928 0.000976563 1.60143 0.352166 0.976311 0.977287C0.35119 1.60241 0 2.45025 0 3.33431L0 5.83431C0 6.71837 0.35119 7.56621 0.976311 8.19133C1.60143 8.81645 2.44928 9.16764 3.33333 9.16764H5.83333C6.71739 9.16764 7.56524 8.81645 8.19036 8.19133C8.81548 7.56621 9.16667 6.71837 9.16667 5.83431V3.33431C9.16667 2.45025 8.81548 1.60241 8.19036 0.977287C7.56524 0.352166 6.71739 0.000976563 5.83333 0.000976562V0.000976563ZM7.5 5.83431C7.5 6.27634 7.32441 6.70026 7.01184 7.01282C6.69928 7.32538 6.27536 7.50098 5.83333 7.50098H3.33333C2.89131 7.50098 2.46738 7.32538 2.15482 7.01282C1.84226 6.70026 1.66667 6.27634 1.66667 5.83431V3.33431C1.66667 2.89228 1.84226 2.46836 2.15482 2.1558C2.46738 1.84324 2.89131 1.66764 3.33333 1.66764H5.83333C6.27536 1.66764 6.69928 1.84324 7.01184 2.1558C7.32441 2.46836 7.5 2.89228 7.5 3.33431V5.83431Z" fill="#EF402F"/>
<path d="M16.6667 0.000976563H14.1667C13.2826 0.000976563 12.4348 0.352166 11.8096 0.977287C11.1845 1.60241 10.8333 2.45025 10.8333 3.33431V5.83431C10.8333 6.71837 11.1845 7.56621 11.8096 8.19133C12.4348 8.81645 13.2826 9.16764 14.1667 9.16764H16.6667C17.5507 9.16764 18.3986 8.81645 19.0237 8.19133C19.6488 7.56621 20 6.71837 20 5.83431V3.33431C20 2.45025 19.6488 1.60241 19.0237 0.977287C18.3986 0.352166 17.5507 0.000976563 16.6667 0.000976562V0.000976563ZM18.3333 5.83431C18.3333 6.27634 18.1577 6.70026 17.8452 7.01282C17.5326 7.32538 17.1087 7.50098 16.6667 7.50098H14.1667C13.7246 7.50098 13.3007 7.32538 12.9882 7.01282C12.6756 6.70026 12.5 6.27634 12.5 5.83431V3.33431C12.5 2.89228 12.6756 2.46836 12.9882 2.1558C13.3007 1.84324 13.7246 1.66764 14.1667 1.66764H16.6667C17.1087 1.66764 17.5326 1.84324 17.8452 2.1558C18.1577 2.46836 18.3333 2.89228 18.3333 3.33431V5.83431Z" fill="#EF402F"/>
<path d="M5.83333 10.8345H3.33333C2.44928 10.8345 1.60143 11.1857 0.976311 11.8108C0.35119 12.4359 0 13.2838 0 14.1678L0 16.6678C0 17.5519 0.35119 18.3997 0.976311 19.0248C1.60143 19.65 2.44928 20.0011 3.33333 20.0011H5.83333C6.71739 20.0011 7.56524 19.65 8.19036 19.0248C8.81548 18.3997 9.16667 17.5519 9.16667 16.6678V14.1678C9.16667 13.2838 8.81548 12.4359 8.19036 11.8108C7.56524 11.1857 6.71739 10.8345 5.83333 10.8345ZM7.5 16.6678C7.5 17.1098 7.32441 17.5338 7.01184 17.8463C6.69928 18.1589 6.27536 18.3345 5.83333 18.3345H3.33333C2.89131 18.3345 2.46738 18.1589 2.15482 17.8463C1.84226 17.5338 1.66667 17.1098 1.66667 16.6678V14.1678C1.66667 13.7258 1.84226 13.3019 2.15482 12.9893C2.46738 12.6767 2.89131 12.5011 3.33333 12.5011H5.83333C6.27536 12.5011 6.69928 12.6767 7.01184 12.9893C7.32441 13.3019 7.5 13.7258 7.5 14.1678V16.6678Z" fill="#EF402F"/>
<g filter="url(#filter0_d_111_1278)">
<path d="M16.6667 10.8345H14.1667C13.2826 10.8345 12.4348 11.1857 11.8096 11.8108C11.1845 12.4359 10.8333 13.2838 10.8333 14.1678V16.6678C10.8333 17.5519 11.1845 18.3997 11.8096 19.0248C12.4348 19.6499 13.2826 20.0011 14.1667 20.0011H16.6667C17.5507 20.0011 18.3986 19.6499 19.0237 19.0248C19.6488 18.3997 20 17.5519 20 16.6678V14.1678C20 13.2838 19.6488 12.4359 19.0237 11.8108C18.3986 11.1857 17.5507 10.8345 16.6667 10.8345V10.8345ZM18.3333 16.6678C18.3333 17.1098 18.1577 17.5338 17.8452 17.8463C17.5326 18.1589 17.1087 18.3345 16.6667 18.3345H14.1667C13.7246 18.3345 13.3007 18.1589 12.9882 17.8463C12.6756 17.5338 12.5 17.1098 12.5 16.6678V14.1678C12.5 13.7258 12.6756 13.3019 12.9882 12.9893C13.3007 12.6767 13.7246 12.5011 14.1667 12.5011H16.6667C17.1087 12.5011 17.5326 12.6767 17.8452 12.9893C18.1577 13.3019 18.3333 13.7258 18.3333 14.1678V16.6678Z" fill="#EF402F"/>
<path d="M14.1667 11.3345H16.6667C17.4181 11.3345 18.1388 11.633 18.6701 12.1643C19.2015 12.6957 19.5 13.4164 19.5 14.1678V16.6678C19.5 17.4193 19.2015 18.1399 18.6701 18.6713C18.1388 19.2026 17.4181 19.5011 16.6667 19.5011H14.1667C13.4152 19.5011 12.6946 19.2026 12.1632 18.6713C11.6318 18.1399 11.3333 17.4193 11.3333 16.6678V14.1678C11.3333 13.4164 11.6318 12.6957 12.1632 12.1643C12.6946 11.633 13.4152 11.3345 14.1667 11.3345ZM18.1987 18.1999C18.6051 17.7935 18.8333 17.2424 18.8333 16.6678V14.1678C18.8333 13.5932 18.6051 13.0421 18.1987 12.6357C17.7924 12.2294 17.2413 12.0011 16.6667 12.0011H14.1667C13.592 12.0011 13.0409 12.2294 12.6346 12.6357C12.2283 13.0421 12 13.5932 12 14.1678V16.6678C12 17.2424 12.2283 17.7935 12.6346 18.1999C13.0409 18.6062 13.592 18.8345 14.1667 18.8345H16.6667C17.2413 18.8345 17.7924 18.6062 18.1987 18.1999Z" stroke="#EF402F"/>
</g>
</g>
<defs>
<filter id="filter0_d_111_1278" x="6.83334" y="10.8345" width="17.1667" height="17.1665" filterUnits="userSpaceOnUse" color-interpolation-filters="sRGB">
<feFlood flood-opacity="0" result="BackgroundImageFix"/>
<feColorMatrix in="SourceAlpha" type="matrix" values="0 0 0 0 0 0 0 0 0 0 0 0 0 0 0 0 0 0 127 0" result="hardAlpha"/>
<feOffset dy="4"/>
<feGaussianBlur stdDeviation="2"/>
<feComposite in2="hardAlpha" operator="out"/>
<feColorMatrix type="matrix" values="0 0 0 0 0 0 0 0 0 0 0 0 0 0 0 0 0 0 0.25 0"/>
<feBlend mode="normal" in2="BackgroundImageFix" result="effect1_dropShadow_111_1278"/>
<feBlend mode="normal" in="SourceGraphic" in2="effect1_dropShadow_111_1278" result="shape"/>
</filter>
<clipPath id="clip0_111_1278">
<rect width="20" height="20" fill="white" transform="translate(0 0.000976562)"/>
</clipPath>
</defs>
</svg>
