<svg width="20" height="20" viewBox="0 0 20 20" fill="none" xmlns="http://www.w3.org/2000/svg">
<g clip-path="url(#clip0_111_771)">
<path d="M10 0.000976562C8.02219 0.000976563 6.08879 0.587466 4.4443 1.68628C2.79981 2.78509 1.51808 4.34688 0.761204 6.17414C0.0043275 8.0014 -0.193706 10.0121 0.192146 11.9519C0.577999 13.8917 1.53041 15.6735 2.92893 17.072C4.32746 18.4706 6.10929 19.423 8.0491 19.8088C9.98891 20.1947 11.9996 19.9967 13.8268 19.2398C15.6541 18.4829 17.2159 17.2012 18.3147 15.5567C19.4135 13.9122 20 11.9788 20 10.001C19.9971 7.34969 18.9426 4.80782 17.0679 2.93308C15.1932 1.05833 12.6513 0.00384413 10 0.000976563V0.000976562ZM10 16.6676C9.83518 16.6676 9.67406 16.6188 9.53702 16.5272C9.39998 16.4356 9.29317 16.3055 9.2301 16.1532C9.16703 16.0009 9.15052 15.8334 9.18268 15.6717C9.21483 15.5101 9.2942 15.3616 9.41074 15.2451C9.52729 15.1285 9.67577 15.0491 9.83742 15.017C9.99908 14.9848 10.1666 15.0013 10.3189 15.0644C10.4712 15.1275 10.6013 15.2343 10.6929 15.3713C10.7845 15.5084 10.8333 15.6695 10.8333 15.8343C10.8333 16.0553 10.7455 16.2673 10.5893 16.4236C10.433 16.5798 10.221 16.6676 10 16.6676ZM11.6083 10.4226C11.3624 10.5764 11.1613 10.7922 11.0253 11.0484C10.8892 11.3045 10.823 11.592 10.8333 11.8818V12.501C10.8333 12.722 10.7455 12.934 10.5893 13.0902C10.433 13.2465 10.221 13.3343 10 13.3343C9.77899 13.3343 9.56702 13.2465 9.41074 13.0902C9.25446 12.934 9.16667 12.722 9.16667 12.501V11.8818C9.15436 11.2938 9.29964 10.7133 9.58744 10.2004C9.87524 9.68751 10.2951 9.261 10.8033 8.96514C11.1112 8.79556 11.3576 8.53298 11.5073 8.21492C11.657 7.89687 11.7022 7.53965 11.6367 7.19431C11.5717 6.86531 11.4102 6.56314 11.1727 6.32638C10.9352 6.08963 10.6325 5.92905 10.3033 5.86514C10.0631 5.82068 9.81603 5.82957 9.57961 5.8912C9.3432 5.95282 9.12323 6.06566 8.93526 6.22174C8.74731 6.37782 8.59596 6.57331 8.49194 6.79437C8.38792 7.01544 8.33377 7.25666 8.33333 7.50098C8.33333 7.72199 8.24554 7.93395 8.08926 8.09023C7.93298 8.24651 7.72101 8.33431 7.5 8.33431C7.27899 8.33431 7.06702 8.24651 6.91074 8.09023C6.75446 7.93395 6.66667 7.72199 6.66667 7.50098C6.66687 6.91307 6.82257 6.33567 7.11796 5.82735C7.41335 5.31904 7.83793 4.89789 8.34862 4.60663C8.85932 4.31537 9.43796 4.16436 10.0259 4.16892C10.6137 4.17348 11.19 4.33345 11.6961 4.6326C12.2022 4.93174 12.6202 5.35942 12.9077 5.87226C13.1951 6.38509 13.3419 6.96484 13.3329 7.55268C13.324 8.14052 13.1598 8.71556 12.8569 9.21944C12.554 9.72333 12.1233 10.1381 11.6083 10.4218V10.4226Z" fill="#EF402F"/>
</g>
<defs>
<clipPath id="clip0_111_771">
<rect width="20" height="20" fill="white" transform="translate(0 0.000976562)"/>
</clipPath>
</defs>
</svg>
